<?xml version="1.0" encoding="UTF-8" standalone="no"?>
<!DOCTYPE svg PUBLIC "-//W3C//DTD SVG 1.1//EN"
 "http://www.w3.org/Graphics/SVG/1.1/DTD/svg11.dtd">
<!-- Generated by graphviz version 10.0.1 (20240210.2158)
 -->
<!-- Title: Grafo1 Pages: 1 -->
<svg width="254pt" height="333pt"
 viewBox="0.00 0.00 254.24 332.69" xmlns="http://www.w3.org/2000/svg" xmlns:xlink="http://www.w3.org/1999/xlink">
<g id="graph0" class="graph" transform="scale(1 1) rotate(0) translate(4 328.69)">
<title>Grafo1</title>
<polygon fill="white" stroke="none" points="-4,4 -4,-328.69 250.24,-328.69 250.24,4 -4,4"/>
<text text-anchor="middle" x="123.12" y="-307.39" font-family="Times New Roman,serif" font-size="14.00">ArbolBinario_Horas</text>
<!-- 300 -->
<g id="node1" class="node">
<title>300</title>
<ellipse fill="none" stroke="black" cx="123.12" cy="-276.83" rx="24.12" ry="24.12"/>
<text text-anchor="middle" x="123.12" y="-271.4" font-family="Times New Roman,serif" font-size="14.00">300</text>
</g>
<!-- 200 -->
<g id="node2" class="node">
<title>200</title>
<ellipse fill="none" stroke="black" cx="90.12" cy="-192.59" rx="24.12" ry="24.12"/>
<text text-anchor="middle" x="90.12" y="-187.17" font-family="Times New Roman,serif" font-size="14.00">200</text>
</g>
<!-- 300&#45;&gt;200 -->
<g id="edge1" class="edge">
<title>300&#45;&gt;200</title>
<path fill="none" stroke="black" d="M114.45,-254.22C110.95,-245.51 106.84,-235.27 103.01,-225.72"/>
<polygon fill="black" stroke="black" points="106.38,-224.72 99.41,-216.74 99.88,-227.33 106.38,-224.72"/>
</g>
<!-- 330 -->
<g id="node5" class="node">
<title>330</title>
<ellipse fill="none" stroke="black" cx="156.12" cy="-192.59" rx="24.12" ry="24.12"/>
<text text-anchor="middle" x="156.12" y="-187.17" font-family="Times New Roman,serif" font-size="14.00">330</text>
</g>
<!-- 300&#45;&gt;330 -->
<g id="edge4" class="edge">
<title>300&#45;&gt;330</title>
<path fill="none" stroke="black" d="M131.79,-254.22C135.28,-245.51 139.39,-235.27 143.23,-225.72"/>
<polygon fill="black" stroke="black" points="146.35,-227.33 146.83,-216.74 139.85,-224.72 146.35,-227.33"/>
</g>
<!-- 150 -->
<g id="node3" class="node">
<title>150</title>
<ellipse fill="none" stroke="black" cx="24.12" cy="-108.35" rx="24.12" ry="24.12"/>
<text text-anchor="middle" x="24.12" y="-102.93" font-family="Times New Roman,serif" font-size="14.00">150</text>
</g>
<!-- 200&#45;&gt;150 -->
<g id="edge2" class="edge">
<title>200&#45;&gt;150</title>
<path fill="none" stroke="black" d="M75.47,-173.34C66.82,-162.56 55.69,-148.69 46.01,-136.63"/>
<polygon fill="black" stroke="black" points="48.89,-134.63 39.9,-129.02 43.43,-139.01 48.89,-134.63"/>
</g>
<!-- 250 -->
<g id="node4" class="node">
<title>250</title>
<ellipse fill="none" stroke="black" cx="90.12" cy="-108.35" rx="24.12" ry="24.12"/>
<text text-anchor="middle" x="90.12" y="-102.93" font-family="Times New Roman,serif" font-size="14.00">250</text>
</g>
<!-- 200&#45;&gt;250 -->
<g id="edge3" class="edge">
<title>200&#45;&gt;250</title>
<path fill="none" stroke="black" d="M90.12,-168.24C90.12,-160.78 90.12,-152.35 90.12,-144.24"/>
<polygon fill="black" stroke="black" points="93.62,-144.27 90.12,-134.27 86.62,-144.27 93.62,-144.27"/>
</g>
<!-- 320 -->
<g id="node6" class="node">
<title>320</title>
<ellipse fill="none" stroke="black" cx="156.12" cy="-108.35" rx="24.12" ry="24.12"/>
<text text-anchor="middle" x="156.12" y="-102.93" font-family="Times New Roman,serif" font-size="14.00">320</text>
</g>
<!-- 330&#45;&gt;320 -->
<g id="edge5" class="edge">
<title>330&#45;&gt;320</title>
<path fill="none" stroke="black" d="M156.12,-168.24C156.12,-160.78 156.12,-152.35 156.12,-144.24"/>
<polygon fill="black" stroke="black" points="159.62,-144.27 156.12,-134.27 152.62,-144.27 159.62,-144.27"/>
</g>
<!-- 400 -->
<g id="node7" class="node">
<title>400</title>
<ellipse fill="none" stroke="black" cx="222.12" cy="-108.35" rx="24.12" ry="24.12"/>
<text text-anchor="middle" x="222.12" y="-102.93" font-family="Times New Roman,serif" font-size="14.00">400</text>
</g>
<!-- 330&#45;&gt;400 -->
<g id="edge6" class="edge">
<title>330&#45;&gt;400</title>
<path fill="none" stroke="black" d="M170.77,-173.34C179.42,-162.56 190.55,-148.69 200.23,-136.63"/>
<polygon fill="black" stroke="black" points="202.81,-139.01 206.34,-129.02 197.35,-134.63 202.81,-139.01"/>
</g>
<!-- 340 -->
<g id="node8" class="node">
<title>340</title>
<ellipse fill="none" stroke="black" cx="222.12" cy="-24.12" rx="24.12" ry="24.12"/>
<text text-anchor="middle" x="222.12" y="-18.69" font-family="Times New Roman,serif" font-size="14.00">340</text>
</g>
<!-- 400&#45;&gt;340 -->
<g id="edge7" class="edge">
<title>400&#45;&gt;340</title>
<path fill="none" stroke="black" d="M222.12,-84.01C222.12,-76.54 222.12,-68.11 222.12,-60.01"/>
<polygon fill="black" stroke="black" points="225.62,-60.04 222.12,-50.04 218.62,-60.04 225.62,-60.04"/>
</g>
</g>
</svg>
